<svg width="16" height="16" viewBox="0 0 16 16" fill="none" xmlns="http://www.w3.org/2000/svg">
<g clip-path="url(#clip0_2134_83)">
<path d="M7.58334 4.66667H4.66668C4.44566 4.66667 4.2337 4.75447 4.07742 4.91075C3.92114 5.06703 3.83334 5.27899 3.83334 5.50001V11.3333C3.83334 11.5544 3.92114 11.7663 4.07742 11.9226C4.2337 12.0789 4.44566 12.1667 4.66668 12.1667H10.5C10.721 12.1667 10.933 12.0789 11.0893 11.9226C11.2455 11.7663 11.3333 11.5544 11.3333 11.3333V8.41667" stroke="#21272A" stroke-width="0.5" stroke-linecap="round" stroke-linejoin="round"/>
<path d="M10.7083 4.04166C10.8741 3.8759 11.0989 3.78278 11.3333 3.78278C11.5678 3.78278 11.7926 3.8759 11.9583 4.04166C12.1241 4.20742 12.2172 4.43224 12.2172 4.66666C12.2172 4.90108 12.1241 5.1259 11.9583 5.29166L8.00001 9.24999L6.33334 9.66666L6.75001 7.99999L10.7083 4.04166Z" stroke="#21272A" stroke-width="0.5" stroke-linecap="round" stroke-linejoin="round"/>
</g>
<rect x="0.25" y="0.25" width="15.5" height="15.5" rx="3.75" stroke="black" stroke-width="0.5"/>
<defs>
<clipPath id="clip0_2134_83">
<rect width="10" height="10" fill="white" transform="translate(3 3)"/>
</clipPath>
</defs>
</svg>
