<svg width="10" height="10" viewBox="0 0 10 10" fill="none" xmlns="http://www.w3.org/2000/svg">
<g clip-path="url(#clip0_5_95)">
<path d="M4.58333 1.66667H1.66667C1.44565 1.66667 1.23369 1.75446 1.07741 1.91074C0.921131 2.06702 0.833334 2.27899 0.833334 2.5V8.33333C0.833334 8.55435 0.921131 8.76631 1.07741 8.92259C1.23369 9.07887 1.44565 9.16667 1.66667 9.16667H7.5C7.72101 9.16667 7.93298 9.07887 8.08926 8.92259C8.24554 8.76631 8.33333 8.55435 8.33333 8.33333V5.41667" stroke="#21272A" stroke-width="0.5" stroke-linecap="round" stroke-linejoin="round"/>
<path d="M7.70833 1.04167C7.87409 0.875907 8.09891 0.782784 8.33333 0.782784C8.56775 0.782784 8.79257 0.875907 8.95833 1.04167C9.12409 1.20743 9.21722 1.43225 9.21722 1.66667C9.21722 1.90109 9.12409 2.12591 8.95833 2.29167L5 6.25L3.33333 6.66667L3.75 5L7.70833 1.04167Z" stroke="#21272A" stroke-width="0.5" stroke-linecap="round" stroke-linejoin="round"/>
</g>
<defs>
<clipPath id="clip0_5_95">
<rect width="10" height="10" fill="white"/>
</clipPath>
</defs>
</svg>
