<svg width="16" height="16" viewBox="0 0 16 16" fill="none" xmlns="http://www.w3.org/2000/svg">
<g clip-path="url(#clip0_5_119)">
<path d="M7.58333 4.66667H4.66667C4.44565 4.66667 4.23369 4.75446 4.07741 4.91074C3.92113 5.06702 3.83333 5.27899 3.83333 5.5V11.3333C3.83333 11.5543 3.92113 11.7663 4.07741 11.9226C4.23369 12.0789 4.44565 12.1667 4.66667 12.1667H10.5C10.721 12.1667 10.933 12.0789 11.0893 11.9226C11.2455 11.7663 11.3333 11.5543 11.3333 11.3333V8.41667" stroke="#21272A" stroke-width="0.5" stroke-linecap="round" stroke-linejoin="round"/>
<path d="M10.7083 4.04167C10.8741 3.87591 11.0989 3.78278 11.3333 3.78278C11.5678 3.78278 11.7926 3.87591 11.9583 4.04167C12.1241 4.20743 12.2172 4.43225 12.2172 4.66667C12.2172 4.90109 12.1241 5.12591 11.9583 5.29167L8 9.25L6.33333 9.66667L6.75 8L10.7083 4.04167Z" stroke="#21272A" stroke-width="0.5" stroke-linecap="round" stroke-linejoin="round"/>
</g>
<rect x="0.25" y="0.25" width="15.5" height="15.5" rx="3.75" stroke="black" stroke-width="0.5"/>
<defs>
<clipPath id="clip0_5_119">
<rect width="10" height="10" fill="white" transform="translate(3 3)"/>
</clipPath>
</defs>
</svg>
