<?xml version="1.0" encoding="UTF-8"?>
<svg xmlns="http://www.w3.org/2000/svg" xmlns:xlink="http://www.w3.org/1999/xlink" width="16px" height="16px" viewBox="0 0 16 15" version="1.1">
<g id="surface1">
<path style=" stroke:none;fill-rule:nonzero;fill:rgb(14.117647%,53.72549%,79.215686%);fill-opacity:1;" d="M 0.457031 5.363281 C 0.457031 5.363281 0.078125 5.101562 0.53125 4.753906 L 1.59375 3.847656 C 1.59375 3.847656 1.894531 3.546875 2.214844 3.808594 L 11.988281 10.875 L 11.988281 14.261719 C 11.988281 14.261719 11.984375 14.792969 11.265625 14.734375 Z M 0.457031 5.363281 "/>
<path style=" stroke:none;fill-rule:nonzero;fill:rgb(6.27451%,43.921569%,70.196078%);fill-opacity:1;" d="M 2.976562 7.546875 L 0.457031 9.730469 C 0.457031 9.730469 0.199219 9.914062 0.457031 10.242188 L 1.625 11.257812 C 1.625 11.257812 1.90625 11.542969 2.316406 11.21875 L 4.984375 9.285156 Z M 2.976562 7.546875 "/>
<path style=" stroke:none;fill-rule:nonzero;fill:rgb(3.137255%,46.666667%,72.54902%);fill-opacity:1;" d="M 7.398438 7.5625 L 12.015625 4.195312 L 11.988281 0.828125 C 11.988281 0.828125 11.789062 0.09375 11.132812 0.472656 L 4.984375 5.816406 Z M 7.398438 7.5625 "/>
<path style=" stroke:none;fill-rule:nonzero;fill:rgb(23.529412%,60%,83.137255%);fill-opacity:1;" d="M 11.265625 14.738281 C 11.535156 15 11.859375 14.914062 11.859375 14.914062 L 15.460938 13.21875 C 15.921875 12.921875 15.855469 12.546875 15.855469 12.546875 L 15.855469 2.4375 C 15.855469 1.992188 15.378906 1.839844 15.378906 1.839844 L 12.261719 0.402344 C 11.578125 0 11.132812 0.472656 11.132812 0.472656 C 11.132812 0.472656 11.707031 0.078125 11.988281 0.828125 L 11.988281 14.199219 C 11.988281 14.289062 11.964844 14.378906 11.925781 14.460938 C 11.84375 14.621094 11.664062 14.769531 11.238281 14.707031 Z M 11.265625 14.738281 "/>
</g>
</svg>
